# xmcd CD database file
#
# Track frame offsets:
#	150
#	23853
#	44839
#	66071
#	80184
#	97799
#	113478
#	137579
#
# Disc length: 2040 seconds
#
# Revision: 0
# Processed by: cddbd v1.5.2PL0 Copyright (c) Steve Scherf et al.
# Submitted via: CDex 1.51
#
DISCID=6407f608
DTITLE=Jia Peng Fang - Friends
DYEAR=2009
DGENRE=New Age
TTITLE0=Floral Calendar
TTITLE1=Xinglin Hupan
TTITLE2=A Water Lily
TTITLE3=Blue Flamingo
TTITLE4=Summer Of Jiamusi
TTITLE5=Summer Dance
TTITLE6=Memory Of Childhood
TTITLE7=Dawn
EXTD=YEAR: 2009
EXTT0=
EXTT1=
EXTT2=
EXTT3=
EXTT4=
EXTT5=
EXTT6=
EXTT7=
PLAYORDER=
